<?xml version="1.0" standalone="no"?>
<!DOCTYPE svg PUBLIC "-//W3C//DTD SVG 20010904//EN"
 "http://www.w3.org/TR/2001/REC-SVG-20010904/DTD/svg10.dtd">
<svg version="1.0" xmlns="http://www.w3.org/2000/svg"
 width="1280.000000pt" height="785.000000pt" viewBox="0 0 1280.000000 785.000000"
 preserveAspectRatio="xMidYMid meet">
<metadata>
Created by potrace 1.15, written by Peter Selinger 2001-2017
</metadata>
<g transform="translate(0.000000,785.000000) scale(0.100000,-0.100000)"
fill="#000000" stroke="none">
<path d="M8995 7836 c-34 -10 -41 -17 -51 -51 -18 -57 -17 -153 2 -216 9 -29
112 -245 229 -479 117 -234 225 -458 240 -497 28 -72 28 -73 9 -94 -16 -17
-20 -42 -24 -138 l-5 -116 -107 -21 c-132 -26 -156 -36 -201 -82 -71 -74 -175
-270 -192 -365 -20 -107 131 -159 368 -127 109 15 363 76 392 94 16 10 25 10
45 -1 37 -19 66 -16 113 11 53 31 116 46 167 39 36 -5 42 -10 63 -57 13 -28
47 -89 76 -135 90 -144 97 -184 54 -326 -47 -157 -37 -233 46 -334 26 -32 35
-51 32 -73 -1 -16 3 -43 10 -60 11 -28 10 -32 -33 -76 -63 -66 -95 -113 -128
-185 -32 -70 -60 -193 -60 -260 0 -29 -6 -49 -17 -58 -39 -33 -47 -77 -48
-264 l-1 -180 -42 -130 c-57 -175 -63 -215 -50 -365 11 -129 5 -183 -25 -224
-12 -17 -15 3 -21 150 -9 215 0 307 69 649 58 291 75 406 75 527 0 104 23 161
111 278 91 121 123 169 117 176 -10 9 -158 -138 -197 -197 -73 -109 -84 -153
-86 -329 -1 -148 -3 -164 -47 -350 -97 -407 -111 -550 -88 -880 6 -96 15 -238
19 -315 l8 -140 -43 -46 c-63 -69 -96 -141 -114 -253 -7 -45 -17 -67 -46 -98
-85 -94 -119 -250 -75 -341 22 -45 22 -47 7 -154 -9 -59 -23 -198 -31 -308
-31 -392 -61 -549 -120 -618 -44 -51 -79 -123 -100 -202 l-16 -60 43 -38 c83
-74 204 -160 258 -185 71 -33 143 -41 166 -18 9 10 23 15 31 12 45 -18 63 -18
63 -1 0 14 9 16 52 13 49 -3 51 -2 59 27 7 26 4 33 -27 58 -24 20 -33 35 -29
47 4 13 -10 34 -48 71 -29 30 -63 75 -75 102 -23 48 -38 57 -61 35 -15 -15
-13 -4 12 67 8 22 18 85 21 140 10 134 51 237 194 487 118 208 159 287 186
359 16 41 22 47 52 52 46 8 90 41 98 74 4 16 10 104 15 196 4 92 12 172 18
178 6 6 41 14 79 20 97 13 94 11 94 73 0 156 32 273 138 501 69 149 113 274
192 540 23 77 43 142 46 145 3 2 8 0 12 -6 110 -160 179 -275 263 -434 229
-438 218 -421 290 -456 36 -17 71 -39 79 -49 14 -17 13 -18 -15 -12 -94 19
-95 19 -101 4 -9 -25 20 -79 94 -168 87 -105 106 -141 132 -247 12 -46 57
-165 102 -265 135 -306 166 -430 136 -547 -12 -48 -12 -71 1 -178 14 -108 19
-126 39 -143 45 -36 96 -42 297 -34 105 4 277 10 383 13 188 7 194 8 213 31
10 13 19 31 19 41 0 35 -66 78 -167 109 -54 17 -142 56 -197 86 -54 30 -114
60 -133 67 -27 10 -40 24 -63 73 -16 33 -47 83 -68 111 -37 48 -40 57 -51 155
-6 57 -16 338 -21 624 -11 593 -20 723 -58 839 -20 63 -26 105 -28 188 -3 98
-6 113 -38 183 -38 83 -86 242 -136 455 -131 556 -161 666 -232 848 -47 122
-45 134 34 206 l51 46 -6 123 c-3 67 -11 156 -17 198 l-12 76 35 69 c19 38 60
130 92 204 62 145 133 291 171 351 19 31 23 47 18 81 -5 34 1 60 26 122 26 63
31 88 26 120 -28 177 -229 306 -501 322 l-90 6 -22 -49 c-13 -26 -45 -79 -72
-118 -54 -76 -75 -137 -65 -191 6 -33 8 -30 51 76 37 90 54 120 97 164 29 29
63 59 75 65 21 12 62 7 60 -7 0 -4 -37 -34 -82 -67 -55 -40 -90 -74 -105 -103
-42 -76 -17 -68 79 25 100 97 159 132 220 133 86 0 184 -59 243 -148 33 -50
73 -148 64 -158 -3 -2 -49 10 -104 26 -101 31 -258 52 -239 32 6 -6 45 -24 88
-41 176 -70 227 -111 227 -182 0 -51 -23 -95 -60 -114 -50 -26 -65 -20 -98 38
-39 69 -128 152 -199 184 -105 48 -268 44 -327 -7 -18 -16 -45 -34 -61 -40
l-28 -11 5 73 c6 87 24 127 113 243 l64 84 -6 74 c-7 89 5 131 58 206 l37 54
-25 56 c-34 74 -48 138 -39 183 6 32 15 41 64 69 110 62 126 69 150 69 17 0
23 5 20 17 -6 30 -66 61 -163 83 -93 21 -95 22 -104 56 -46 167 -210 267 -442
268 -102 1 -107 0 -150 -29 -122 -83 -231 -225 -258 -338 -24 -100 -17 -160
43 -333 61 -177 65 -210 40 -324 -16 -71 -16 -72 11 -176 15 -58 26 -107 23
-109 -7 -8 -66 154 -71 195 -3 20 -2 55 3 79 l8 43 -52 -6 c-28 -4 -111 -27
-184 -52 -73 -25 -193 -60 -267 -78 -163 -41 -228 -75 -267 -135 -15 -25 -28
-49 -28 -53 0 -12 37 9 94 54 27 21 53 37 58 36 9 -3 18 -24 69 -163 18 -49
26 -155 12 -155 -19 1 -198 98 -204 111 -4 8 -15 36 -25 64 -21 61 -92 139
-155 171 l-46 23 -33 118 c-38 137 -67 255 -145 593 -63 272 -99 378 -153 448
-42 55 -56 67 -101 87 -39 18 -81 18 -136 1z"/>
<path d="M2524 6631 c-23 -10 -44 -26 -47 -35 -4 -11 -19 -16 -47 -16 -77 0
-185 -22 -248 -50 -113 -52 -212 -180 -251 -327 l-12 -43 -72 0 c-40 0 -112 7
-161 15 -49 8 -91 13 -94 11 -9 -10 31 -67 68 -94 22 -16 98 -53 168 -82 70
-29 128 -54 130 -55 1 -1 7 -31 13 -66 5 -35 25 -108 44 -163 l34 -98 -22 -30
c-34 -46 -81 -71 -127 -66 l-40 4 0 -52 0 -51 -147 -42 c-337 -96 -404 -163
-633 -621 -131 -262 -200 -373 -280 -450 -52 -49 -60 -61 -71 -116 -11 -54
-16 -63 -48 -80 -55 -29 -84 -93 -78 -173 5 -64 4 -66 -48 -153 -162 -269
-213 -563 -136 -783 27 -78 88 -190 221 -405 197 -321 267 -495 294 -736 l6
-51 -61 -43 c-58 -41 -99 -89 -99 -119 0 -7 25 10 56 38 30 28 65 52 77 53 12
1 72 2 134 2 61 1 115 5 119 9 18 17 -15 42 -70 53 -73 15 -87 29 -20 20 47
-6 53 -4 68 19 9 13 34 34 55 45 46 23 57 49 39 87 -19 39 -68 69 -166 100
-77 24 -156 73 -142 86 3 2 41 -2 85 -10 78 -14 287 -14 301 0 14 14 -41 51
-290 196 -44 25 -102 68 -130 94 l-51 48 52 -25 c53 -26 142 -51 151 -42 8 8
-31 38 -183 140 -77 51 -158 113 -180 136 -43 46 -40 45 43 -7 69 -44 359
-169 369 -159 2 2 -17 26 -41 53 -46 51 -96 86 -269 187 -54 32 -97 59 -95 61
2 2 36 -1 76 -6 80 -11 178 -39 326 -93 54 -20 112 -36 130 -36 l31 1 -30 25
c-52 43 -163 90 -365 154 -213 68 -280 98 -356 158 -64 50 -79 96 -77 237 1
120 26 224 83 343 l39 83 28 -15 c40 -20 133 -46 133 -37 0 14 -33 38 -82 59
-26 11 -49 29 -53 41 -13 41 52 101 109 101 39 0 159 -67 309 -174 76 -54 157
-108 180 -122 23 -13 39 -24 36 -24 -4 0 -53 15 -110 34 -57 19 -131 37 -164
40 l-60 7 56 -53 c34 -31 123 -91 220 -147 144 -84 272 -181 258 -196 -8 -8
-218 51 -325 90 -54 20 -143 57 -196 83 -96 44 -98 46 -98 79 0 19 14 68 31
108 17 41 29 84 27 97 -3 19 -10 11 -36 -39 -22 -43 -38 -63 -51 -63 -10 0
-58 11 -106 25 -48 14 -90 23 -93 21 -12 -12 35 -61 94 -98 36 -23 71 -53 79
-69 29 -54 26 -55 -107 -51 l-123 4 23 -24 c12 -12 55 -37 95 -53 52 -22 77
-39 92 -62 19 -31 22 -32 90 -33 39 0 108 -7 155 -15 47 -9 123 -15 170 -14
70 1 97 -4 155 -26 69 -26 113 -51 104 -59 -2 -2 -35 4 -74 14 -74 20 -147 24
-180 11 -17 -7 -13 -10 25 -21 63 -17 70 -24 30 -30 -65 -9 -42 -32 105 -100
78 -36 156 -74 175 -85 l35 -20 -32 -3 c-18 -2 -33 -9 -33 -16 0 -7 30 -30 67
-52 37 -21 83 -52 101 -68 48 -42 126 -203 210 -436 76 -209 87 -299 52 -434
-60 -234 -70 -250 -210 -346 -47 -33 -103 -78 -123 -100 -19 -22 -42 -40 -49
-40 -23 0 -88 -39 -174 -105 -46 -35 -134 -88 -196 -118 -62 -30 -149 -82
-193 -114 -87 -65 -263 -228 -255 -236 8 -9 184 79 204 101 13 15 31 22 54 22
28 0 46 10 92 52 49 46 220 147 220 132 0 -4 -40 -54 -89 -113 -164 -197 -231
-287 -327 -439 -1 -2 -37 25 -80 60 -44 35 -96 74 -116 87 -21 12 -38 25 -38
27 0 3 7 16 16 29 16 25 7 34 -13 14 -7 -7 -41 -10 -90 -7 -62 3 -92 10 -147
36 l-69 32 22 24 c23 24 87 46 136 46 16 0 45 15 73 39 26 21 87 60 136 87 86
48 172 112 162 121 -8 8 -106 -28 -216 -79 -222 -105 -244 -106 -126 -6 50 42
120 83 269 156 111 55 238 122 281 151 83 54 124 68 268 95 130 24 263 80 261
110 0 5 -19 23 -43 40 -39 29 -48 31 -123 31 -68 0 -90 -4 -132 -26 -27 -14
-115 -59 -195 -100 -80 -42 -217 -104 -304 -138 -156 -61 -161 -64 -233 -134
-75 -73 -113 -133 -113 -179 0 -19 -15 -37 -59 -72 -60 -47 -149 -149 -221
-256 -30 -45 -40 -69 -40 -100 0 -25 -15 -76 -40 -135 -27 -62 -43 -115 -46
-157 l-6 -63 64 -48 c34 -26 88 -68 118 -93 109 -90 206 -124 353 -124 87 0
153 14 228 47 l46 21 -9 63 c-10 78 -22 116 -47 149 l-19 24 38 17 c20 9 47
20 59 24 l22 7 -21 -34 c-11 -18 -20 -48 -20 -65 0 -28 3 -33 25 -33 18 0 23
-4 18 -16 -5 -15 0 -16 41 -10 26 4 66 14 88 22 38 13 42 13 55 -6 27 -38 123
-21 123 22 0 16 -5 19 -25 16 -14 -3 -28 -1 -31 3 -3 5 42 9 100 9 88 0 106 3
106 15 0 10 -10 15 -30 15 -20 0 -30 5 -30 15 0 18 -1 18 36 6 65 -21 84 -22
84 -6 0 21 -36 33 -94 33 -52 -1 -81 16 -56 32 28 19 138 49 215 59 111 16
239 14 512 -9 275 -22 512 -26 593 -10 30 6 87 10 125 8 82 -2 95 3 95 40 0
15 4 33 9 41 14 22 31 3 24 -29 l-5 -30 51 0 c37 0 51 4 51 14 0 17 39 32 104
41 27 4 55 9 62 12 22 8 16 23 -10 23 -13 0 -36 10 -51 21 -21 17 -26 28 -23
50 4 27 2 29 -29 29 -37 0 -39 -2 -17 -24 14 -15 2 -16 -128 -15 -155 1 -166
4 -46 14 59 5 87 13 115 32 46 31 92 27 160 -13 l48 -28 -29 -6 c-71 -13 -29
-37 139 -79 68 -17 175 -18 175 -2 0 5 -18 7 -40 4 -39 -5 -76 10 -65 27 7 12
123 28 247 35 133 7 208 27 208 56 0 15 -12 25 -40 36 -47 19 -49 25 -15 47
14 9 25 24 25 34 0 9 -24 42 -53 73 l-52 57 -120 11 c-113 10 -195 27 -211 44
-4 4 -3 7 3 7 18 0 23 43 13 104 -9 56 -8 60 25 111 32 51 34 60 46 198 8 111
8 197 -1 363 -6 121 -15 305 -20 409 -10 207 -20 257 -70 334 -38 60 -84 103
-211 198 -115 86 -143 115 -79 82 37 -19 63 -23 177 -27 l133 -5 73 74 c126
129 167 241 174 474 6 178 -5 262 -77 604 -28 130 -59 292 -70 361 -41 257
-133 570 -281 964 -57 152 -85 206 -109 206 -5 0 -16 -8 -26 -17 -16 -17 -16
-18 -1 -21 23 -5 21 -24 -4 -56 -15 -20 -25 -24 -32 -17 -6 6 -30 11 -52 11
-57 0 -62 10 -18 34 30 17 47 39 80 104 22 45 37 84 33 87 -5 3 -20 3 -33 -1
-14 -3 -28 -1 -31 5 -5 7 11 11 48 11 l55 0 30 80 c44 114 61 185 61 258 l0
65 -52 -7 c-66 -9 -60 -9 -80 -7 -13 1 -18 9 -18 30 0 32 -13 46 -53 56 -52
14 -26 25 56 25 118 0 121 4 125 130 4 96 3 103 -23 142 -46 69 -104 126 -220
214 l-111 84 -70 0 c-46 0 -83 -7 -110 -19z m-579 -4174 c33 -23 131 -94 218
-160 155 -116 249 -171 315 -183 l32 -6 0 -102 c0 -55 -9 -186 -20 -291 -24
-228 -25 -370 -5 -485 17 -96 20 -217 6 -253 -7 -18 -5 -38 9 -74 10 -26 21
-69 25 -95 l7 -47 -43 -3 c-39 -3 -44 -6 -47 -30 -2 -20 -7 -25 -20 -21 -38
14 -36 38 5 54 31 12 26 28 -18 54 -28 16 -56 21 -155 23 -157 5 -288 -14
-541 -80 l-198 -51 -250 -6 c-137 -3 -256 -10 -262 -14 -23 -14 -14 4 31 67
106 147 542 618 683 737 45 38 96 89 112 113 68 98 105 243 105 401 -1 155
-26 248 -142 535 -6 16 55 -18 153 -83z"/>
<path d="M11820 6262 c0 -27 30 -122 38 -122 4 1 17 9 30 20 35 29 17 76 -40
106 -26 13 -28 13 -28 -4z"/>
<path d="M5203 6055 c-205 -55 -303 -211 -228 -362 l26 -51 177 -5 c198 -5
290 -23 277 -55 -4 -9 -10 -37 -13 -61 l-5 -44 -211 7 c-116 4 -214 10 -218
12 -5 3 -8 20 -8 39 0 45 -16 85 -35 85 -12 0 -15 -13 -15 -57 0 -105 -8 -99
148 -106 75 -3 209 -13 297 -23 l161 -17 33 31 c39 35 35 47 -16 57 -52 9 -73
22 -73 44 0 12 11 23 30 30 57 19 29 44 -80 71 l-65 16 -5 47 c-6 51 -15 66
-30 51 -6 -6 -6 -22 0 -44 14 -48 14 -48 -20 -55 -22 -5 -42 -1 -71 14 -23 12
-49 19 -59 16 -14 -4 -19 0 -22 17 -2 15 -11 24 -25 26 -25 4 -30 -7 -12 -25
17 -17 1 -33 -32 -33 -35 0 -35 2 -4 56 44 75 147 123 325 150 l55 9 -24 24
c-22 22 -29 23 -105 19 -131 -9 -326 -100 -326 -154 0 -14 -5 -35 -12 -47 -11
-21 -11 -21 -19 -2 -4 11 -8 42 -8 69 -2 144 166 242 362 210 45 -8 50 -21 5
-16 -18 2 -42 -3 -52 -11 -17 -12 -9 -14 70 -20 104 -7 124 -13 124 -38 0 -10
12 -55 26 -100 19 -61 25 -97 22 -137 -4 -47 -3 -51 10 -38 8 8 27 37 41 63
32 59 66 68 106 29 21 -21 25 -35 25 -82 0 -31 -5 -85 -12 -121 -8 -45 -8 -67
-1 -74 8 -8 14 -5 22 10 7 12 15 21 20 21 4 0 13 -44 20 -97 6 -53 13 -99 16
-101 2 -2 25 3 51 12 57 19 49 19 68 0 34 -34 20 -44 -59 -44 -73 0 -75 1 -81
28 -19 85 -38 131 -60 140 -16 8 -24 23 -29 54 -8 47 -29 88 -47 88 -18 0 -2
-118 26 -196 13 -38 49 -121 80 -185 56 -118 75 -178 76 -238 0 -33 0 -34 -20
-16 -33 30 -63 104 -95 237 -29 124 -31 127 -70 153 -56 39 -122 42 -290 15
-146 -24 -292 -25 -330 -2 -16 9 -5 11 63 12 68 0 85 3 102 20 11 11 20 24 20
29 0 30 -210 50 -242 23 -9 -7 -18 -29 -22 -50 -7 -50 -42 -114 -109 -204 -61
-82 -97 -147 -97 -177 0 -15 10 -23 40 -31 31 -8 59 -6 141 10 56 12 105 20
110 18 4 -2 -2 -23 -14 -47 -20 -40 -30 -47 -101 -75 -73 -30 -85 -39 -159
-122 -150 -168 -278 -353 -511 -741 -70 -117 -165 -269 -211 -338 -47 -70 -85
-136 -85 -149 0 -12 -5 -27 -12 -34 -9 -9 -9 -20 1 -47 11 -33 11 -38 -12 -65
-53 -62 -58 -140 -16 -227 l20 -41 -34 -69 c-50 -98 -103 -247 -134 -371 -23
-93 -27 -128 -27 -267 -1 -138 2 -170 21 -230 30 -95 85 -177 193 -289 l90
-93 118 -13 c72 -8 197 -11 323 -9 l206 4 -8 -29 c-10 -36 -22 -53 -98 -146
-34 -41 -66 -91 -72 -111 -8 -25 -24 -43 -58 -65 -81 -51 -165 -144 -207 -230
-37 -75 -39 -82 -39 -176 l0 -98 -45 -6 c-78 -10 -148 -33 -178 -59 -22 -19
-41 -25 -76 -25 -52 0 -55 -6 -34 -83 l11 -44 123 -7 c68 -3 130 -9 138 -12 8
-3 20 -21 26 -40 10 -30 16 -34 45 -34 19 0 59 9 90 21 45 17 55 25 55 43 0
13 14 40 30 61 48 60 42 69 -37 59 -100 -13 -200 -11 -215 3 -14 15 -4 27 30
38 22 6 23 5 13 -14 -11 -19 -9 -21 23 -21 27 0 39 7 56 31 l22 30 22 -20 c27
-25 59 -27 77 -5 11 14 11 18 -4 29 -26 19 -20 24 21 18 64 -10 72 -17 60 -60
-6 -21 -8 -78 -5 -128 4 -81 7 -91 31 -112 33 -28 115 -53 175 -53 99 0 233
-22 391 -65 303 -81 393 -85 570 -30 61 19 136 36 166 38 42 3 60 9 82 30 31
30 48 33 71 14 13 -11 59 -12 246 -6 127 5 266 15 309 22 69 12 83 12 109 -1
41 -20 117 -9 193 28 45 22 70 28 92 24 32 -6 102 12 102 26 0 5 -4 12 -10 15
-17 11 -11 24 20 40 40 21 38 35 -6 35 -39 0 -67 -12 -101 -42 -16 -15 -29
-18 -52 -13 -47 10 -47 25 -2 25 30 0 41 4 41 15 0 9 -9 15 -21 15 -12 0 -23
8 -26 19 -4 18 -25 19 -391 26 -580 11 -586 11 -616 -8 -14 -9 -30 -26 -36
-36 -13 -26 -2 -54 18 -46 9 3 51 9 94 12 74 6 78 5 78 -15 0 -12 8 -26 18
-31 9 -6 14 -11 10 -11 -4 0 -22 9 -40 20 -44 27 -84 25 -144 -5 -27 -14 -50
-25 -51 -25 -2 0 -3 14 -3 31 0 32 -31 70 -95 115 -17 12 -27 25 -24 28 3 4
57 11 120 17 131 11 200 26 179 39 -48 30 -308 36 -401 10 -34 -10 -39 -8 -70
22 -19 18 -58 53 -87 78 -30 25 -54 54 -55 64 -2 25 144 149 319 270 193 134
276 199 362 284 53 52 92 82 120 91 23 8 74 41 114 74 40 33 100 72 133 87 67
30 101 68 141 154 72 158 69 369 -8 525 l-33 66 -145 72 c-255 126 -395 169
-605 183 -77 6 -157 13 -178 16 -36 6 -38 8 -32 33 4 14 22 61 41 104 18 43
38 102 42 132 7 42 15 59 39 79 36 30 45 66 29 108 -9 24 -8 31 5 38 28 16 67
84 73 130 4 25 36 108 71 186 36 78 68 155 71 173 7 31 18 39 29 21 3 -5 34
-10 68 -10 60 0 78 -6 129 -43 14 -10 79 -29 144 -43 249 -54 278 -62 301 -91
19 -23 30 -27 101 -31 70 -4 87 -1 133 20 70 32 392 240 583 377 190 135 244
166 329 185 86 20 113 34 190 100 113 95 144 114 203 122 62 7 104 35 104 68
0 34 -19 46 -73 46 -29 0 -46 4 -42 10 3 6 30 10 58 10 87 0 128 49 72 86 -21
14 -41 16 -111 10 -86 -6 -134 -1 -134 15 0 5 35 26 78 47 52 26 84 49 100 72
37 55 31 63 -42 58 -52 -3 -80 -13 -155 -52 -51 -26 -96 -46 -100 -44 -22 8
15 53 74 90 66 41 95 77 95 119 0 19 -4 21 -40 16 -67 -9 -125 -45 -224 -138
-51 -49 -96 -89 -99 -89 -2 0 -7 20 -10 44 -9 61 -26 95 -58 112 -61 31 -58
44 -76 -286 l-8 -134 -40 -23 c-48 -27 -116 -50 -292 -97 -82 -22 -187 -60
-276 -100 -165 -75 -218 -90 -269 -75 -38 10 -116 86 -101 98 4 4 35 28 68 53
33 26 116 96 185 156 l125 110 36 -33 c92 -83 255 -63 352 44 20 22 61 78 90
123 30 46 68 101 86 122 50 63 73 150 79 310 5 153 -4 217 -45 304 -38 82
-120 130 -195 115 l-28 -5 0 -98 c0 -99 -21 -192 -55 -250 -15 -25 -15 -24 -9
13 5 29 3 37 -9 37 -21 0 -33 -19 -42 -65 -8 -48 -21 -65 -47 -65 -18 0 -17 3
6 43 32 55 127 335 115 342 -17 11 -86 -15 -113 -44 -22 -23 -26 -33 -18 -48
18 -33 -7 -67 -50 -71 -34 -3 -39 -9 -89 -90 -29 -48 -95 -153 -146 -234 -87
-141 -92 -151 -95 -210 l-3 -62 -85 -32 c-47 -18 -163 -57 -258 -88 -95 -30
-206 -71 -247 -91 -90 -43 -92 -43 -180 72 -82 106 -100 123 -130 123 -14 0
-35 10 -47 22 l-21 21 54 15 c30 7 76 17 104 20 46 7 52 11 87 62 67 94 91
236 48 275 -24 22 -25 33 -4 56 20 22 10 39 -22 39 -38 0 -64 18 -80 55 -27
64 -20 79 43 102 l57 20 -3 44 c-5 68 -44 192 -82 255 -42 72 -205 235 -273
275 -54 30 -94 36 -143 18 -24 -8 -43 -6 -91 10 -72 25 -171 27 -249 6z"/>
<path d="M7226 5343 c-12 -12 -6 -43 9 -43 8 0 15 9 15 19 0 21 -13 34 -24 24z"/>
<path d="M730 2985 c33 -35 112 -65 229 -86 93 -17 176 -38 220 -56 9 -4 7 5
-7 24 -31 44 -104 71 -252 93 -72 11 -149 27 -171 34 l-41 14 22 -23z"/>
<path d="M1139 2932 c14 -27 43 -50 84 -67 66 -27 32 19 -46 63 -46 27 -50 27
-38 4z"/>
<path d="M1120 2406 c19 -24 94 -56 130 -56 44 0 31 11 -52 44 -77 30 -96 33
-78 12z"/>
<path d="M1720 1881 c-88 -55 -190 -144 -179 -156 3 -2 34 15 69 40 71 50 89
56 66 23 -40 -56 5 -41 86 28 53 47 63 60 64 89 0 19 -2 35 -5 35 -3 0 -49
-27 -101 -59z"/>
<path d="M1232 1864 c-36 -25 -23 -74 21 -74 23 0 91 66 82 80 -10 15 -78 12
-103 -6z"/>
<path d="M1106 1672 c-3 -5 -69 -38 -146 -73 -134 -61 -269 -141 -277 -165 -6
-18 90 7 105 28 7 9 77 48 155 86 159 77 198 104 181 122 -7 7 -14 8 -18 2z"/>
<path d="M11343 1073 c-18 -7 -16 -24 4 -38 50 -37 -48 -47 -149 -15 -65 20
-153 26 -176 11 -10 -6 -7 -10 12 -15 37 -9 32 -32 -9 -46 -32 -11 -38 -9 -67
15 -37 31 -58 30 -164 -8 -98 -36 -204 -47 -454 -47 -231 0 -290 -5 -290 -25
0 -21 -39 -61 -47 -49 -26 36 -128 47 -159 17 -17 -17 -16 -18 22 -24 56 -7
157 -69 114 -69 -5 0 -10 -9 -10 -20 0 -16 -8 -19 -57 -22 -64 -3 -83 -23 -31
-33 23 -4 54 1 96 15 68 24 82 21 82 -17 0 -21 4 -24 23 -20 50 13 346 19 940
21 585 1 627 0 627 -16 0 -23 56 -33 117 -21 39 7 48 12 46 28 -2 27 14 35 75
35 48 0 66 -10 42 -25 -19 -12 -10 -24 24 -30 66 -13 110 26 46 40 -34 7 -41
25 -10 25 11 0 20 6 20 13 0 27 20 35 63 25 22 -5 52 -7 66 -5 51 7 -60 46
-175 62 -60 8 -158 30 -219 48 l-110 34 63 8 c50 6 62 10 62 25 0 22 -19 30
-70 30 -29 0 -42 5 -50 19 -22 41 -41 53 -80 46 -25 -4 -52 0 -89 14 -49 20
-101 26 -128 14z"/>
<path d="M11640 1042 c0 -20 28 -32 77 -32 55 0 68 11 34 30 -23 12 -111 14
-111 2z"/>
<path d="M740 975 c-7 -8 -48 -34 -92 -57 -70 -38 -136 -93 -125 -104 6 -6
173 88 213 119 19 16 34 34 34 42 0 19 -14 19 -30 0z"/>
<path d="M8003 920 c-39 -23 -46 -56 -10 -46 50 14 137 19 137 8 0 -6 -6 -9
-14 -6 -8 3 -34 0 -57 -7 -100 -27 -105 -27 -155 -3 -90 44 -223 26 -224 -30
0 -8 71 -4 153 10 30 5 37 4 37 -10 0 -9 7 -28 16 -41 16 -24 16 -25 -9 -25
-13 0 -30 -7 -37 -15 -18 -21 9 -29 74 -21 40 4 57 2 65 -8 10 -12 7 -15 -21
-18 -21 -2 -33 -8 -33 -18 0 -24 88 -49 213 -60 162 -14 202 -20 202 -30 0 -5
-9 -12 -20 -15 -24 -8 -26 -30 -4 -39 31 -12 102 -6 164 14 34 11 85 20 111
20 60 0 67 22 14 44 -54 23 -41 34 21 19 68 -18 124 -10 124 16 0 12 10 21 28
25 15 3 37 8 48 12 19 5 22 1 27 -48 2 -29 1 -61 -4 -70 -8 -15 -5 -18 21 -18
17 0 64 -10 105 -22 80 -23 127 -19 133 13 3 17 -33 29 -92 29 -24 0 -27 3
-16 10 8 5 26 10 40 10 14 0 45 11 69 25 25 14 59 25 80 25 43 0 75 27 76 63
0 47 -51 50 -115 7 -25 -16 -55 -30 -68 -30 -19 0 -21 2 -10 19 9 15 9 23 -1
35 -12 14 -10 16 18 16 80 0 248 57 258 87 3 8 -13 13 -43 15 -64 4 -70 26 -8
30 54 3 69 23 27 35 -31 9 -282 9 -711 1 -232 -5 -286 -9 -300 -21 -22 -19
-92 -31 -132 -22 -33 7 -32 25 1 25 12 0 19 5 17 13 -3 8 -31 13 -84 15 -65 2
-85 -1 -111 -18z"/>
<path d="M11870 880 c8 -16 21 -20 60 -20 28 0 50 4 50 10 0 16 -37 30 -80 30
-38 0 -40 -2 -30 -20z"/>
<path d="M12120 875 c0 -23 45 -40 78 -29 47 17 34 39 -25 42 -43 2 -53 0 -53
-13z"/>
<path d="M12255 830 c-24 -39 113 -57 156 -20 l24 19 -35 1 c-19 0 -58 3 -86
6 -36 5 -54 3 -59 -6z"/>
<path d="M6728 814 c-26 -8 -50 -19 -53 -24 -14 -23 150 -24 255 -1 l35 7 -32
17 c-40 21 -139 21 -205 1z"/>
<path d="M6372 811 c-34 -5 -65 -10 -67 -13 -3 -3 4 -13 15 -23 23 -21 60 -22
190 -8 l75 8 -26 18 c-32 21 -102 28 -187 18z"/>
<path d="M7724 805 c-16 -13 -17 -16 -4 -25 8 -5 39 -10 68 -10 39 0 52 4 52
15 0 33 -80 47 -116 20z"/>
<path d="M9807 810 c-47 -9 -55 -17 -36 -35 18 -18 129 -9 129 11 0 13 -31 35
-47 33 -4 -1 -25 -5 -46 -9z"/>
<path d="M6080 791 c0 -16 40 -23 88 -15 41 6 44 8 22 15 -36 10 -110 11 -110
0z"/>
<path d="M7244 791 c-10 -11 -2 -22 24 -33 26 -12 26 -12 -22 -18 -27 -3 -51
-10 -53 -17 -5 -15 58 -33 119 -33 52 0 66 11 43 33 -13 14 -6 17 63 30 69 13
74 15 52 25 -25 10 -218 21 -226 13z"/>
<path d="M6884 746 c-10 -8 -15 -18 -11 -23 14 -13 159 -8 192 7 l30 13 -40 8
c-65 13 -149 10 -171 -5z"/>
<path d="M7553 752 c-12 -2 -27 -10 -33 -17 -10 -12 -7 -17 14 -25 36 -13 202
-33 246 -28 l35 3 -29 19 c-29 20 -193 54 -233 48z"/>
<path d="M12192 749 c-49 -18 -6 -39 81 -39 38 0 40 1 26 16 -21 20 -79 33
-107 23z"/>
<path d="M7044 665 c-8 -20 4 -35 26 -35 39 0 29 -19 -11 -22 -70 -5 -61 -28
10 -28 37 0 61 4 61 11 0 6 9 22 20 36 34 44 27 53 -40 53 -44 0 -62 -4 -66
-15z"/>
<path d="M7247 643 c-11 -3 -16 -10 -13 -20 3 -8 6 -17 6 -19 0 -2 12 -4 28
-4 31 0 75 27 67 41 -6 9 -55 10 -88 2z"/>
<path d="M8720 611 c0 -33 92 -42 98 -8 3 14 -4 17 -47 17 -28 0 -51 -4 -51
-9z"/>
<path d="M8120 603 c-8 -2 -21 -7 -29 -9 -11 -3 -11 -7 0 -20 9 -11 29 -14 81
-12 37 2 68 6 68 10 0 26 -76 46 -120 31z"/>
<path d="M3901 580 c-29 -5 -73 -16 -98 -25 -42 -16 -45 -16 -58 1 -19 26 -90
24 -117 -4 l-21 -20 42 -21 c27 -14 41 -28 41 -41 0 -24 0 -24 105 -4 89 18
115 15 115 -13 0 -10 7 -27 15 -38 15 -18 19 -18 113 -5 140 19 232 24 245 11
8 -8 4 -11 -13 -11 -34 0 -12 -18 25 -21 17 -1 45 -1 64 -1 30 2 33 5 29 27
-5 23 -3 25 36 25 52 0 118 -18 111 -31 -4 -5 -15 -9 -26 -9 -10 0 -19 -7 -19
-15 0 -20 59 -20 105 -1 42 18 46 36 8 36 l-28 1 28 15 c46 25 28 39 -49 40
-73 1 -124 10 -124 22 0 4 15 16 33 26 l32 19 -35 8 c-137 30 -440 46 -559 29z"/>
<path d="M6867 553 c-4 -3 -7 -17 -7 -30 0 -16 6 -23 19 -23 33 0 69 18 81 40
10 19 8 20 -38 20 -27 0 -52 -3 -55 -7z"/>
<path d="M3493 543 c-32 -12 9 -53 54 -53 16 0 53 36 53 52 0 8 -86 10 -107 1z"/>
<path d="M3062 503 c2 -12 12 -18 28 -18 16 0 26 6 28 18 3 13 -3 17 -28 17
-25 0 -31 -4 -28 -17z"/>
<path d="M6695 507 c-10 -8 -15 -19 -12 -25 12 -18 77 7 77 29 0 14 -44 11
-65 -4z"/>
<path d="M6500 495 c-18 -22 -3 -35 39 -35 39 0 68 20 56 40 -9 15 -81 12 -95
-5z"/>
<path d="M6102 478 c-7 -7 -12 -20 -12 -29 0 -15 5 -15 54 -4 60 14 76 22 76
36 0 13 -104 11 -118 -3z"/>
<path d="M4721 447 c-14 -18 4 -27 56 -27 27 0 34 4 31 18 -4 22 -70 29 -87 9z"/>
<path d="M5745 440 c-18 -20 -17 -20 18 -20 42 0 87 15 87 30 0 5 -20 10 -43
10 -31 0 -49 -6 -62 -20z"/>
<path d="M4945 440 c-10 -16 -3 -20 40 -27 33 -5 37 -4 33 13 -4 22 -61 33
-73 14z"/>
<path d="M4781 401 c-24 -16 -1 -31 48 -31 43 0 71 12 71 32 0 11 -101 10
-119 -1z"/>
<path d="M8020 390 c0 -15 38 -50 55 -50 10 0 15 10 15 30 0 28 -3 30 -35 30
-19 0 -35 -4 -35 -10z"/>
<path d="M4943 383 c-18 -7 -16 -30 3 -37 26 -10 82 -7 90 6 15 25 -53 48 -93
31z"/>
<path d="M11395 350 c-270 -15 -539 -51 -820 -110 -138 -29 -320 -77 -300 -79
68 -6 311 -40 538 -76 473 -74 756 -97 982 -80 184 14 75 28 -265 35 -289 5
-319 8 -365 27 -56 23 -154 38 -365 53 -135 11 -244 27 -315 48 -28 8 -27 9
25 16 30 4 180 32 333 62 452 89 565 97 932 69 313 -25 380 -28 421 -21 162
31 -465 74 -801 56z"/>
</g>
</svg>
